# xmcd
#
# Track frame offsets:
#	150
#	12007
#	24785
#	36935
#	48080
#	60532
#	77572
#	90207
#	102425
#	114280
#	126522
#	138117
#	148612
#	162987
#	176047
#	188910
#	202877
#	214862
#	227670
#	240632
#
# Disc length: 3376
#
# Revision: 5
# Processed by: cddbd v1.5.1PL0 Copyright (c) Steve Scherf et al.
# Submitted via: OrangeCD 5.2
# Normalized: r4:DSETVAR1
#
DISCID=fc0d2e14
DTITLE=Various Artist - Island 40 Volume 2: 1964-1969 - Rhythm and Blues Beat
DYEAR=1997
DGENRE=R&B
TTITLE0=Inez Foxx - Mockingbird
TTITLE1=Jimmy McGriff - The Last Minute
TTITLE2=Donnie Elbert - Little Piece Of Leater
TTITLE3=The Skatalites - Guns Of Navarone
TTITLE4=Justin Hinds and The Dominoes - Rub Up, Push Up
TTITLE5=Little Joe Cook - Stormy Monday Blues
TTITLE6=Bob and Earl - Harlem Shuffle
TTITLE7=The Soul Sisters - I Can't Stand It
TTITLE8=Jackie Edwards - Come On Home
TTITLE9=The Spencer Davis Group - Keep On Running
TTITLE10=Robert Parker - Barefootin'
TTITLE11=Roy C - Shotgun Wedding
TTITLE12=The V.I.P.'s - I Wanna Be Free
TTITLE13=The Spencer Davis Group - Gimme Some Lovin'
TTITLE14=Delroy Wilson - Dancing Mood
TTITLE15=The Wailers - Put It On
TTITLE16=The Paragons - The Tide Is High
TTITLE17=The Pioneers - Long Shot Kick De Bucket
TTITLE18=Harry J's All Stars - Liquidator
TTITLE19=Desmond Dekker - Israelites
EXTD=
EXTT0=
EXTT1=
EXTT2=
EXTT3=
EXTT4=
EXTT5=
EXTT6=
EXTT7=
EXTT8=
EXTT9=
EXTT10=
EXTT11=
EXTT12=
EXTT13=
EXTT14=
EXTT15=
EXTT16=
EXTT17=
EXTT18=
EXTT19=
PLAYORDER=
